<svg xmlns="http://www.w3.org/2000/svg" width="455" height="72" fill="none" viewBox="0 0 455 72">
  <path fill="#fff" d="M47.523 23.522c-.478-1.659-1.148-3.125-2.012-4.398a12.405 12.405 0 0 0-3.17-3.272c-1.227-.91-2.637-1.603-4.227-2.08-1.569-.477-3.307-.716-5.216-.716-3.569 0-6.705.886-9.41 2.659-2.681 1.773-4.772 4.352-6.272 7.739-1.5 3.363-2.25 7.477-2.25 12.341 0 4.863.739 9 2.216 12.409 1.477 3.409 3.568 6.011 6.273 7.807 2.704 1.772 5.897 2.659 9.579 2.659 3.341 0 6.193-.591 8.557-1.773 2.386-1.205 4.204-2.898 5.454-5.08 1.273-2.181 1.909-4.761 1.909-7.738l3 .443h-18V33.408H63.17v8.796c0 6.136-1.295 11.409-3.886 15.818-2.591 4.386-6.159 7.773-10.705 10.159-4.545 2.364-9.75 3.546-15.613 3.546-6.546 0-12.296-1.444-17.25-4.33-4.955-2.909-8.818-7.034-11.591-12.375C1.375 49.658 0 43.295 0 35.931c0-5.659.818-10.704 2.455-15.136 1.659-4.455 3.977-8.228 6.954-11.318A30.048 30.048 0 0 1 19.807 2.42C23.761.806 28.045 0 32.659 0c3.955 0 7.636.579 11.045 1.738 3.41 1.136 6.432 2.75 9.069 4.84a26.208 26.208 0 0 1 6.511 7.467c1.682 2.863 2.761 6.022 3.239 9.477h-15Zm26.735 47.25V.954h47.046v12.17H89.02v16.637h29.863v12.17H89.02v16.671h32.42v12.17H74.258Zm58.782 0V.954h27.545c5.273 0 9.773.943 13.5 2.83 3.75 1.863 6.602 4.51 8.557 7.943 1.977 3.409 2.966 7.42 2.966 12.034 0 4.636-1 8.625-3 11.966-2 3.318-4.898 5.863-8.693 7.636-3.773 1.773-8.341 2.659-13.705 2.659h-18.443V34.158h16.057c2.818 0 5.159-.386 7.023-1.159 1.863-.772 3.25-1.932 4.159-3.477.931-1.545 1.397-3.466 1.397-5.761 0-2.319-.466-4.273-1.397-5.864-.909-1.591-2.307-2.795-4.194-3.614-1.863-.841-4.215-1.261-7.056-1.261h-9.955v57.75H133.04Zm37.704-31.773 17.353 31.773h-16.296l-16.977-31.773h15.92Zm25.296 31.773V.954h47.045v12.17h-32.284v16.637h29.864v12.17h-29.864v16.671h32.421v12.17H196.04ZM313.219.954v69.818h-12.75l-30.375-43.943h-.512v43.943h-14.761V.954h12.955l30.136 43.909h.614V.953l14.693.001Zm55.321 0h14.761v45.341c0 5.091-1.216 9.545-3.648 13.363-2.409 3.819-5.784 6.796-10.125 8.932-4.341 2.114-9.397 3.171-15.17 3.171-5.796 0-10.864-1.057-15.205-3.171-4.341-2.136-7.716-5.113-10.125-8.932-2.409-3.818-3.613-8.272-3.613-13.363V.954h14.761v44.079c0 2.659.58 5.023 1.739 7.091 1.182 2.068 2.841 3.693 4.977 4.875s4.625 1.773 7.466 1.773c2.864 0 5.352-.591 7.466-1.773 2.136-1.182 3.784-2.807 4.943-4.875 1.182-2.068 1.773-4.432 1.773-7.091V.954Zm26.906 69.818V.954h14.761v30.784h.921L436.253.954h17.693l-25.909 31.261 26.216 38.557h-17.659l-19.125-28.705-7.262 8.864v19.841h-14.761Z"/>
</svg>
